<svg width="22" height="22" viewBox="0 0 22 22" fill="none" xmlns="http://www.w3.org/2000/svg" xmlns:xlink="http://www.w3.org/1999/xlink">
<path d="M16.9 21L3.75 21C2.09315 21 0.75 19.6569 0.75 18V6.57446C0.75 4.91761 2.09315 3.57446 3.75 3.57446H16.75C18.4069 3.57446 19.75 4.91761 19.75 6.57446V18" stroke="#1C398E" stroke-width="1.5" stroke-linecap="round"/>
<path d="M16.9 21L3.75 21C2.09315 21 0.75 19.6569 0.75 18V6.57446C0.75 4.91761 2.09315 3.57446 3.75 3.57446H16.75C18.4069 3.57446 19.75 4.91761 19.75 6.57446V18" stroke-width="1.5" stroke-linecap="round"/>
<path d="M5.88513 3.79787C5.88513 2.6933 6.78056 1.78723 7.88513 1.78723H12.6149C13.7194 1.78723 14.6149 2.6933 14.6149 3.79787C14.6149 4.90244 13.7194 5.80851 12.6149 5.80851H7.88513C6.78056 5.80851 5.88513 4.90244 5.88513 3.79787Z" fill="#1C398E"/>
<path d="M12.8176 1.78723C12.8176 2.7743 11.7255 3.57447 10.3784 3.57447C9.03127 3.57447 7.93921 2.7743 7.93921 1.78723C7.93921 0.800172 9.03127 0 10.3784 0C11.7255 0 12.8176 0.800172 12.8176 1.78723Z" fill="#1C398E"/>
<rect x="3.6731" y="9" width="13.1538" height="1.5" rx="0.75" fill="#1C398E"/>
<path d="M3.6731 12.75C3.6731 12.3358 4.00888 12 4.4231 12H16.0769C16.4912 12 16.8269 12.3358 16.8269 12.75C16.8269 13.1642 16.4912 13.5 16.0769 13.5H4.4231C4.00888 13.5 3.6731 13.1642 3.6731 12.75Z" fill="#1C398E"/>
<path d="M6.59613 15.75C6.59613 15.3358 6.93192 15 7.34613 15H13.1538C13.568 15 13.9038 15.3358 13.9038 15.75C13.9038 16.1642 13.568 16.5 13.1538 16.5H7.34613C6.93192 16.5 6.59613 16.1642 6.59613 15.75Z" fill="#1C398E"/>
<path d="M14.25 15.6993L15.6471 16.014L14.65 17.1093L14.25 15.6993Z" fill="#1C398E"/>
<path d="M15.723 16.0912L20.7706 20.6803C21.0728 20.955 21.1028 21.4303 20.8375 21.7417V21.7417C20.5723 22.0532 20.1122 22.083 19.81 21.8082L14.7624 17.2191L15.723 16.0912Z" fill="#1C398E"/>
</svg>
